# xmcd
#
# Track frame offsets:
#	150
#	12117
#	24353
#	35343
#
# Disc length: 611 seconds
#
# Revision: 0
# Processed by: cddbd v1.5.2PL0 Copyright (c) Steve Scherf et al.
# Submitted via: audiograbber 1.83.01
#
DISCID=1f026104
DTITLE=Smo prijatli - V zivo iz Dragatusa
DYEAR=1992
DGENRE=Polka
TTITLE0=Butorajska polka
TTITLE1=Kravji bal
TTITLE2=Ob Lahinji
TTITLE3=Zalostna deklica
EXTD=neuradni cd
EXTT0=
EXTT1=
EXTT2=
EXTT3=
PLAYORDER=
